<svg width="41" height="40" viewBox="0 0 41 40" fill="none" xmlns="http://www.w3.org/2000/svg">
<path d="M25.9168 3.33325H15.0835C12.1012 3.33766 9.24224 4.52434 7.13341 6.63317C5.02458 8.742 3.8379 11.6009 3.8335 14.5833V25.4166C3.8335 28.4003 5.01876 31.2618 7.12854 33.3715C9.23833 35.4813 12.0998 36.6666 15.0835 36.6666H25.9168C28.9005 36.6666 31.762 35.4813 33.8718 33.3715C35.9816 31.2618 37.1668 28.4003 37.1668 25.4166V14.5833C37.1624 11.6009 35.9757 8.742 33.8669 6.63317C31.7581 4.52434 28.8992 3.33766 25.9168 3.33325ZM34.6668 20.8333H29.7668L25.2668 28.3666C25.1173 28.6123 24.9066 28.8151 24.6555 28.9553C24.4043 29.0955 24.1211 29.1683 23.8335 29.1666H23.7335C23.4272 29.1504 23.1314 29.0501 22.8785 28.8766C22.6256 28.7031 22.4255 28.4632 22.3002 28.1833L16.9502 16.1166L13.6168 21.6999C13.4673 21.9456 13.2566 22.1484 13.0055 22.2886C12.7543 22.4288 12.4711 22.5016 12.1835 22.4999H6.35016V19.1666H11.2335L15.7502 11.6499C15.9075 11.389 16.1334 11.1762 16.4033 11.0347C16.6731 10.8931 16.9766 10.8283 17.2807 10.8472C17.5849 10.8661 17.878 10.968 18.1283 11.1419C18.3785 11.3157 18.5763 11.5548 18.7002 11.8333L24.0668 23.8999L27.4002 18.3166C27.5477 18.0678 27.7574 17.8617 28.0087 17.7185C28.26 17.5753 28.5443 17.5 28.8335 17.4999H34.6668V20.8333Z" fill="#4B35FF"/>
</svg>
